<?xml version="1.0" standalone="no"?>
<!DOCTYPE svg PUBLIC "-//W3C//DTD SVG 20010904//EN"
 "http://www.w3.org/TR/2001/REC-SVG-20010904/DTD/svg10.dtd">
<svg version="1.0" xmlns="http://www.w3.org/2000/svg"
 width="713.000000pt" height="1280.000000pt" viewBox="0 0 713.000000 1280.000000"
 preserveAspectRatio="xMidYMid meet">
<metadata>
Created by potrace 1.15, written by Peter Selinger 2001-2017
</metadata>
<g transform="translate(0.000000,1280.000000) scale(0.100000,-0.100000)"
fill="#000000" stroke="none">
<path d="M681 12773 c6 -16 54 -86 108 -158 160 -213 210 -297 197 -332 -10
-24 -132 -12 -247 26 -53 17 -99 31 -102 31 -4 0 -11 -10 -18 -21 -10 -19 -4
-29 59 -93 130 -133 202 -236 202 -290 0 -32 -27 -40 -111 -34 -56 4 -62 3
-72 -19 -5 -13 -8 -25 -6 -27 6 -5 130 -75 258 -147 132 -74 211 -139 211
-175 0 -29 -48 -68 -121 -99 -30 -13 -54 -28 -53 -34 1 -6 2 -17 2 -23 2 -10
46 -13 186 -13 135 0 188 -3 197 -13 19 -18 -78 -108 -216 -202 -60 -41 -113
-78 -118 -81 -5 -4 -5 -15 2 -26 10 -20 18 -20 189 -15 308 8 318 -10 112
-213 -101 -99 -206 -222 -197 -231 2 -2 41 7 88 20 194 56 347 71 370 35 15
-23 2 -67 -60 -199 -50 -106 -82 -200 -68 -200 2 0 57 24 123 54 153 68 264
106 331 113 52 6 53 5 53 -21 0 -33 -34 -101 -116 -232 -65 -103 -117 -208
-128 -256 -6 -27 -4 -26 132 41 153 74 270 117 284 103 10 -10 -51 -104 -115
-176 l-43 -49 -129 17 c-638 81 -1280 -126 -1585 -510 -78 -98 -111 -159 -166
-304 -53 -140 -115 -330 -107 -330 2 0 44 33 91 73 180 152 307 237 355 237
32 0 39 -33 25 -115 -8 -52 -7 -61 8 -72 26 -19 30 -17 65 35 43 62 149 172
166 172 21 0 33 -44 33 -119 0 -65 1 -69 25 -73 29 -6 31 -3 74 78 43 81 100
137 141 137 49 0 101 -60 171 -197 34 -67 62 -122 63 -124 2 -1 18 55 36 125
34 135 75 239 104 262 14 12 20 11 42 -10 14 -13 43 -61 64 -106 l40 -83 46
25 c74 39 88 24 108 -118 l11 -78 53 76 c53 76 103 118 129 108 18 -7 37 -44
74 -150 18 -48 35 -92 39 -96 4 -5 24 14 44 42 40 55 91 91 126 91 34 0 83
-42 129 -111 23 -34 41 -65 41 -69 0 -4 -39 -17 -87 -30 -332 -86 -706 -313
-952 -576 -262 -280 -443 -584 -555 -933 -66 -204 -105 -396 -141 -701 -16
-135 -33 -410 -26 -410 12 0 110 63 129 83 12 13 47 89 78 168 69 181 112 261
147 273 35 13 46 2 109 -103 59 -100 84 -130 117 -142 31 -12 33 -9 130 181
94 184 130 237 177 256 30 12 38 12 70 -1 20 -8 38 -15 39 -15 1 0 5 28 9 62
8 75 33 183 53 221 41 81 98 89 188 26 31 -22 59 -39 60 -37 2 2 44 86 93 188
90 186 125 237 151 220 10 -6 35 8 85 49 133 107 165 123 167 79 2 -63 14 -62
57 4 48 76 123 148 152 148 32 0 60 -34 130 -160 l64 -115 8 45 c4 25 14 94
22 153 27 183 63 234 144 202 28 -12 55 -39 106 -107 38 -50 69 -96 70 -102 0
-6 -25 -63 -56 -126 -169 -347 -289 -758 -333 -1140 -19 -173 -20 -505 0 -670
14 -125 38 -255 70 -382 16 -64 19 -68 46 -68 16 0 29 1 29 3 0 1 -7 58 -15
127 -19 163 -20 300 -1 326 14 19 15 19 52 -1 20 -11 79 -60 132 -110 70 -66
94 -83 88 -65 -4 14 -10 113 -13 222 -8 292 16 450 98 631 23 51 54 130 69
176 l28 84 40 -69 c22 -38 56 -89 74 -114 l35 -44 -38 -59 c-71 -110 -114
-263 -106 -378 3 -51 13 -85 43 -145 68 -138 59 -251 -29 -352 -22 -26 -54
-76 -71 -112 -26 -56 -31 -79 -34 -166 -6 -141 26 -243 114 -367 19 -26 34
-50 34 -53 0 -4 -15 -45 -34 -93 -75 -188 -85 -343 -31 -471 53 -124 45 -293
-20 -460 -90 -231 -54 -508 96 -727 l29 -41 -44 -26 c-61 -35 -121 -107 -147
-175 -18 -45 -22 -76 -22 -156 0 -116 26 -216 93 -362 l41 -88 -50 -96 c-96
-183 -116 -368 -57 -538 25 -71 64 -149 92 -182 12 -13 7 -23 -39 -70 -99
-103 -142 -229 -140 -414 0 -130 22 -254 68 -390 14 -41 25 -82 25 -89 0 -17
-28 -6 464 -181 316 -112 412 -143 418 -133 65 92 110 283 124 528 9 163 -6
282 -48 367 -33 67 -33 70 -33 208 0 119 3 148 21 195 62 159 20 393 -90 512
l-35 38 34 73 c78 169 115 373 96 522 -13 95 -44 189 -84 253 -24 37 -25 44
-17 103 24 171 42 464 38 609 -5 149 -6 158 -40 245 -58 147 -59 209 -3 285
48 65 70 160 70 305 0 176 -37 303 -121 422 l-32 45 24 71 c35 104 54 227 54
358 0 193 -34 339 -121 513 l-42 86 31 77 c44 115 52 147 62 263 10 117 5 154
-40 272 -41 106 -40 161 6 296 62 180 57 323 -18 591 -31 111 -30 145 3 200
24 40 40 39 88 -4 35 -32 42 -34 67 -25 61 24 136 -16 174 -91 11 -20 29 -73
41 -116 12 -43 22 -79 24 -81 1 -2 17 35 34 82 39 108 83 195 111 221 l22 20
24 -30 c13 -17 36 -68 51 -115 15 -47 31 -89 35 -94 5 -6 20 2 37 18 80 77
149 9 266 -260 98 -225 118 -253 166 -241 36 9 59 66 70 171 11 106 37 233 48
241 18 11 68 -172 91 -330 6 -44 13 -92 16 -107 l5 -27 54 54 c61 63 87 69
109 26 16 -30 56 -213 56 -254 0 -57 10 -57 69 4 107 110 139 78 196 -195 15
-68 34 -150 44 -182 l17 -59 43 83 c39 74 88 132 111 132 5 0 25 -14 45 -32
61 -53 172 -310 234 -546 10 -37 14 -41 31 -32 30 16 75 12 102 -10 32 -24 86
-129 128 -245 18 -49 51 -134 73 -188 38 -94 41 -98 66 -92 14 4 28 8 30 10 8
8 -21 427 -40 575 -81 649 -299 1198 -651 1643 -96 121 -299 325 -418 421
-109 87 -310 221 -425 283 l-90 49 3 79 c5 104 27 219 50 259 28 48 54 45 110
-13 44 -46 147 -206 188 -293 10 -21 21 -38 24 -38 4 0 12 26 19 58 19 87 60
209 80 233 l18 22 25 -34 c14 -19 43 -68 63 -109 40 -81 79 -130 105 -130 8 0
39 27 68 59 54 61 81 78 105 64 8 -4 37 -36 65 -69 46 -56 101 -92 116 -77 3
4 6 23 6 44 0 58 28 119 54 119 33 0 59 -21 236 -195 145 -142 216 -205 233
-205 3 0 -6 39 -19 88 -60 216 -94 462 -63 462 19 0 119 -102 259 -265 137
-159 179 -199 254 -245 35 -21 38 -22 33 -4 -3 10 -17 60 -32 109 -128 444
-237 648 -469 881 -303 302 -702 468 -1236 514 -229 20 -382 10 -580 -35 -130
-30 -373 -76 -377 -71 -2 2 20 19 49 38 159 106 345 267 390 337 42 68 39 78
-29 86 -243 25 -348 45 -341 65 2 4 76 74 165 154 242 218 383 389 383 463 0
26 -25 53 -89 96 -47 31 -81 80 -81 117 0 64 75 178 215 328 42 45 72 82 67
82 -6 0 -46 -7 -89 -15 -102 -20 -193 -20 -193 -1 0 19 88 123 139 164 45 36
47 40 28 66 -13 18 -19 16 -133 -24 -88 -31 -136 -42 -184 -43 l-65 -2 3 35
c1 19 36 101 77 182 41 81 75 150 75 153 0 9 -118 -73 -200 -139 -110 -88
-332 -314 -439 -446 -315 -387 -544 -862 -655 -1355 -30 -132 -66 -371 -66
-437 0 -27 -3 -48 -7 -48 -5 0 -23 66 -40 148 -154 702 -443 1406 -801 1951
-319 486 -757 922 -1183 1179 -100 60 -339 175 -484 234 -84 34 -262 98 -272
98 -1 0 2 -12 8 -27z m1725 -2940 c-4 -21 -11 -54 -17 -74 l-9 -36 -65 15
c-36 9 -64 20 -62 26 6 17 127 106 144 106 12 0 14 -7 9 -37z m1949 -1345 c7
-18 16 -50 20 -71 l8 -39 -49 7 c-27 4 -53 11 -59 17 -11 10 41 118 57 118 5
0 15 -15 23 -32z m540 -59 c17 -32 94 -249 89 -249 -2 0 -48 18 -103 41 l-99
41 14 45 c20 67 61 153 73 153 6 0 18 -14 26 -31z"/>
</g>
</svg>
